<?xml version="1.0" standalone="no"?>
<!DOCTYPE svg PUBLIC "-//W3C//DTD SVG 20010904//EN"
 "http://www.w3.org/TR/2001/REC-SVG-20010904/DTD/svg10.dtd">
<svg version="1.0" xmlns="http://www.w3.org/2000/svg"
 width="660.000000pt" height="400.000000pt" viewBox="0 0 660.000000 400.000000"
 preserveAspectRatio="xMidYMid meet">
<metadata>
Created by potrace 1.14, written by Peter Selinger 2001-2017
</metadata>
<g transform="translate(0.000000,400.000000) scale(0.100000,-0.100000)"
fill="#000000" stroke="none">
<path d="M0 3218 c0 -711 1 -780 16 -760 8 12 22 22 30 22 8 0 22 8 33 19 35
35 130 65 206 65 81 0 163 -20 147 -36 -6 -6 -16 -7 -28 0 -29 15 -100 24
-133 17 -33 -7 -60 -60 -41 -79 6 -6 6 -14 -1 -22 -18 -22 -2 -31 68 -40 112
-14 181 -6 245 27 34 17 59 25 63 19 8 -14 68 -13 100 2 21 9 31 9 46 0 11 -7
19 -8 19 -2 0 5 4 10 10 10 5 0 9 -5 7 -11 -1 -7 29 -19 73 -29 86 -19 122
-36 237 -104 86 -52 143 -98 143 -115 0 -14 -17 -14 -25 -1 -11 17 -36 11 -33
-7 1 -10 -1 -24 -6 -32 -10 -16 6 -30 104 -95 80 -53 189 -167 217 -228 28
-58 50 -144 68 -264 8 -53 16 -98 17 -99 2 -2 24 -7 51 -13 47 -9 47 -9 48 17
l1 26 10 -28 c8 -23 14 -28 34 -23 19 5 22 3 17 -11 -5 -15 -2 -14 18 4 13 12
33 23 44 25 18 3 20 -3 23 -79 3 -78 2 -81 -18 -76 -11 3 -20 9 -20 13 0 6
-52 30 -66 30 -1 0 -12 -16 -24 -35 -21 -33 -21 -40 -11 -131 5 -53 15 -102
22 -110 6 -8 15 -35 20 -60 5 -25 22 -63 39 -83 16 -21 34 -50 39 -65 6 -14
15 -26 21 -26 5 0 10 -23 10 -53 0 -29 9 -77 20 -107 11 -30 20 -56 20 -58 0
-1 11 0 25 4 33 8 68 -15 96 -66 16 -29 28 -39 39 -34 55 23 127 13 169 -22
37 -30 40 -30 38 3 l-2 28 105 7 c89 5 203 23 285 44 16 4 17 3 5 -5 -22 -16
-3 -13 84 9 53 14 95 19 133 16 55 -6 134 -35 163 -61 9 -8 43 -21 77 -28 33
-8 88 -29 122 -47 l60 -32 83 11 c46 7 117 21 158 32 41 11 120 26 175 34 56
8 119 22 140 31 72 30 168 56 189 51 36 -9 168 -62 221 -89 l50 -26 -45 5
c-25 3 -88 14 -142 24 -124 25 -142 24 -223 -6 -37 -14 -89 -30 -116 -36 -27
-6 -65 -22 -85 -35 -31 -21 -50 -26 -124 -28 -47 -1 -92 -6 -99 -10 -6 -4 -17
-3 -24 2 -13 11 -78 2 -77 -10 0 -5 0 -15 0 -23 0 -12 16 -15 87 -15 66 0 91
-4 104 -16 35 -32 128 -27 244 11 16 6 16 3 -5 -13 -13 -11 -28 -18 -32 -16
-4 3 -26 -1 -49 -8 -42 -12 -42 -12 -14 -20 15 -4 42 -5 59 -2 45 8 156 36
156 41 0 8 -26 48 -35 55 -6 4 -2 8 8 8 10 0 23 -12 29 -27 7 -16 13 -30 14
-32 2 -1 26 5 54 14 51 17 51 17 33 38 -18 20 -18 20 9 2 27 -17 30 -16 150
25 68 23 128 46 134 51 6 5 19 7 27 3 9 -3 49 1 89 10 40 9 106 23 145 31 l73
16 107 -37 c104 -36 221 -103 231 -133 7 -21 -36 -4 -98 39 -30 21 -75 43
-100 50 -25 6 -53 13 -63 16 -36 11 -15 -13 45 -51 63 -40 128 -98 128 -114 0
-11 -50 14 -105 52 -22 15 -45 27 -51 27 -7 0 -32 20 -56 44 l-45 44 -69 -5
c-38 -3 -97 -11 -131 -19 -34 -7 -99 -17 -145 -20 -86 -8 -184 -43 -195 -70
-3 -8 -9 -11 -14 -8 -6 3 -17 0 -25 -7 -13 -10 -17 -10 -24 1 -7 12 -10 11
-16 -3 -3 -9 -14 -17 -23 -18 -12 0 -12 -2 -2 -6 19 -8 -86 -43 -129 -43 -19
0 -42 -5 -50 -11 -13 -9 -12 -10 2 -5 16 5 33 -12 38 -38 1 -5 -17 -20 -40
-33 -56 -34 -127 -29 -162 10 -36 41 -69 44 -108 10 -29 -24 -44 -29 -114 -33
-45 -3 -108 0 -142 6 -72 13 -124 7 -141 -15 -7 -9 -13 -40 -13 -68 0 -58 -14
-71 -24 -22 -5 27 -10 31 -31 27 -22 -5 -25 -1 -30 31 -11 66 -26 124 -40 150
-15 30 -72 87 -79 80 -3 -3 2 -25 10 -49 19 -55 11 -122 -19 -166 -17 -26 -24
-30 -38 -21 -24 15 -36 1 -21 -23 7 -11 12 -27 12 -35 0 -13 -4 -14 -20 -5
-11 6 -20 20 -20 30 0 11 -4 20 -10 20 -5 0 -10 5 -10 10 0 6 9 10 20 10 11 0
20 7 20 15 0 8 -6 15 -13 15 -8 0 -25 17 -38 37 -33 51 -102 74 -142 48 -21
-14 -25 -21 -17 -35 12 -22 14 -93 3 -88 -5 2 -21 10 -38 17 -55 24 -60 28
-82 62 -34 54 -124 137 -237 217 -55 39 -61 41 -64 23 -2 -11 6 -38 17 -60 39
-76 27 -137 -18 -92 -22 22 -51 19 -51 -5 0 -24 -38 2 -42 28 -2 16 -9 22 -23
21 -11 -2 -37 -4 -58 -6 -21 -3 -40 -7 -44 -11 -15 -14 -23 -4 -13 15 17 31 6
33 -28 4 -37 -31 -37 -31 -69 -1 -25 24 -26 25 -9 50 22 35 3 43 -50 21 -43
-18 -106 -13 -98 8 2 7 30 28 60 46 l56 33 -31 15 c-28 14 -36 14 -88 -5 -103
-38 -270 -54 -362 -36 -48 10 -37 22 14 16 48 -5 188 14 218 29 24 14 21 44
-8 67 -20 16 -45 59 -45 78 0 2 25 20 55 39 56 36 83 43 102 24 12 -12 69 -4
78 12 11 16 -48 31 -95 24 -131 -19 -116 -23 -135 37 -23 70 -30 76 -58 50
-13 -12 -29 -22 -35 -22 -7 0 -20 -4 -30 -9 -32 -17 -113 -43 -118 -38 -8 8
117 74 164 86 23 7 42 17 42 24 0 14 -29 57 -30 44 0 -14 -74 23 -101 51 -34
35 -46 72 -28 83 11 7 10 9 -3 9 -10 0 -18 4 -18 8 0 5 -18 17 -39 27 -54 24
-43 41 31 49 49 5 65 3 80 -11 17 -15 18 -15 7 16 -6 18 -21 36 -33 41 -11 4
-45 27 -75 49 -30 23 -58 41 -61 41 -14 0 -156 150 -209 220 -57 77 -104 164
-93 174 3 3 -2 6 -12 6 -9 0 -15 4 -12 8 3 5 -4 23 -14 40 -11 18 -31 73 -46
124 -15 51 -31 99 -37 106 -14 18 3 33 71 60 43 17 48 21 22 16 -19 -3 -68
-22 -109 -42 -53 -25 -76 -32 -79 -24 -3 10 -7 10 -18 1 -8 -6 -11 -15 -8 -21
3 -5 0 -15 -6 -23 -14 -17 -35 -21 -25 -5 3 6 -1 7 -10 4 -10 -4 -26 3 -41 17
-23 21 -27 22 -57 10 -61 -25 -88 -26 -94 -2 -3 11 -10 21 -16 21 -6 0 0 11
13 25 32 34 64 34 58 1 -6 -30 6 -36 50 -24 36 10 42 23 13 31 -15 4 -18 11
-14 28 4 13 12 28 20 32 20 12 4 29 -20 21 -22 -7 -22 -6 -3 15 11 12 36 26
57 33 33 9 96 58 76 58 -4 0 -48 -9 -97 -20 -50 -11 -101 -18 -114 -14 -12 3
-50 -2 -83 -10 -68 -18 -129 -21 -137 -7 -4 5 6 12 21 15 184 35 195 38 216
74 l20 34 69 -4 c55 -4 85 -1 145 19 42 13 83 21 90 19 8 -3 12 -2 9 3 -6 10
16 21 41 21 8 0 21 7 29 15 13 12 12 15 -5 24 -10 6 -37 13 -60 17 -34 5 -41
4 -41 -10 0 -13 -8 -19 -22 -15 -2 0 -20 -7 -40 -16 -48 -19 -50 -4 -3 18 70
33 30 49 -57 22 -46 -13 -48 -13 -48 5 0 29 -19 34 -41 11 -26 -28 -145 -64
-183 -55 -17 4 -50 15 -74 25 -24 10 -69 20 -99 22 -43 3 -60 9 -74 25 l-17
22 -53 -21 c-30 -11 -64 -19 -76 -16 l-23 4 0 -1203 0 -1204 561 0 561 0 -21
36 c-21 35 -27 64 -13 64 4 -1 25 -23 47 -50 l40 -50 150 1 c90 1 140 4 125 9
-14 4 -37 8 -51 9 -15 1 -39 7 -54 15 -15 8 -34 12 -41 9 -8 -3 -17 2 -20 11
-3 9 -15 16 -25 16 -10 0 -19 6 -19 13 0 7 -9 20 -20 30 -25 21 -25 34 -2 40
9 3 3 5 -14 6 -17 0 -34 4 -37 7 -9 10 13 45 24 39 5 -4 6 -11 3 -17 -5 -7 -2
-8 5 -3 7 4 22 -1 34 -13 12 -11 58 -39 102 -62 93 -49 158 -94 148 -103 -3
-4 1146 -7 2555 -7 l2562 0 0 2000 0 2000 -3300 0 -3300 0 0 -782z m2187 296
c-4 -4 0 -19 8 -33 14 -27 65 -251 65 -289 0 -28 -16 -29 -23 -2 -6 24 -62 27
-91 5 -24 -18 -82 -20 -93 -2 -11 18 -4 54 22 104 26 48 24 68 -12 96 -13 10
-23 23 -23 29 0 20 33 48 55 48 13 0 30 11 39 25 9 14 26 25 38 25 12 0 18 -3
15 -6z m570 -398 c16 -14 42 -43 58 -66 l28 -41 -12 -93 c-12 -88 -12 -95 8
-134 38 -75 24 -114 -38 -105 -70 12 -117 64 -99 112 15 43 -19 147 -62 186
-23 21 -50 67 -50 85 0 6 16 26 36 45 44 43 88 47 131 11z m-727 -159 c21 -11
30 -22 26 -32 -3 -8 -1 -17 4 -20 6 -4 10 -3 10 2 0 4 15 25 33 45 l32 37 -1
-47 c-1 -26 -4 -54 -8 -63 -10 -22 44 -34 60 -13 6 8 17 14 24 14 10 0 9 5 -3
18 -11 12 -13 22 -6 35 6 9 15 15 20 11 6 -3 13 3 16 15 3 11 9 19 13 16 16
-10 90 -145 90 -165 0 -18 -3 -19 -22 -9 -18 9 -15 3 11 -24 38 -40 51 -104
33 -156 -10 -28 -9 -31 11 -31 45 0 96 -20 90 -35 -4 -12 6 -15 56 -15 l61 0
22 45 c12 25 27 45 34 45 20 0 74 -60 74 -83 0 -11 -27 -75 -61 -142 -50 -99
-61 -130 -62 -174 -2 -70 17 -77 32 -14 12 45 44 93 63 93 4 0 8 -12 8 -27 1
-27 1 -27 15 -9 8 11 15 34 15 51 0 94 170 300 192 234 3 -9 14 -8 40 1 84 31
140 -19 146 -130 4 -70 2 -78 -66 -212 -5 -10 60 -10 75 0 7 4 35 66 62 137
68 178 89 225 100 225 16 0 70 -50 77 -72 4 -14 -10 -54 -46 -130 -34 -70 -55
-126 -58 -158 l-5 -50 34 0 c26 0 42 10 79 48 40 42 48 56 53 102 13 105 96
225 173 250 54 18 121 4 157 -31 27 -27 29 -35 25 -83 -8 -94 -75 -149 -182
-150 -34 0 -68 2 -76 4 -11 4 -16 -5 -18 -37 -3 -34 2 -47 27 -75 27 -30 34
-33 88 -32 38 0 72 7 98 21 55 29 125 106 125 137 0 45 40 134 78 173 100 102
229 107 273 9 23 -50 24 -85 4 -133 -26 -61 -59 -75 -124 -52 -23 8 -29 14
-21 23 5 7 17 32 25 56 14 39 14 45 0 59 -35 36 -129 -50 -155 -143 -24 -87
22 -152 107 -150 75 2 213 103 213 157 0 12 22 86 48 164 l48 141 -37 15 c-38
15 -67 51 -50 61 5 4 21 2 36 -4 14 -5 39 -10 55 -10 27 0 30 5 52 73 12 39
23 74 25 76 5 8 62 -22 83 -44 18 -19 21 -31 16 -56 l-6 -31 38 7 c157 30 393
35 442 10 36 -18 62 -66 58 -103 -4 -32 -17 -32 -118 -7 -71 18 -365 26 -431
12 -34 -7 -37 -11 -92 -136 -32 -71 -66 -155 -77 -187 -24 -68 -26 -132 -6
-140 33 -13 108 51 148 125 24 44 41 31 23 -18 -22 -64 -42 -97 -80 -130 -31
-27 -43 -31 -90 -31 -46 0 -56 4 -74 26 -13 17 -21 41 -21 66 l0 39 -32 -37
c-57 -65 -113 -94 -180 -94 -84 0 -142 36 -168 104 l-11 30 -29 -36 c-16 -20
-52 -50 -81 -68 -42 -28 -62 -34 -122 -37 -86 -5 -123 13 -154 75 l-20 40 -42
-49 c-53 -62 -105 -80 -156 -56 -33 16 -35 15 -44 -2 -9 -16 -4 -19 51 -25 33
-3 67 -11 74 -17 15 -12 19 -86 6 -107 -7 -10 -27 -7 -95 14 l-87 27 -38 -41
c-43 -47 -76 -62 -133 -62 -78 0 -126 87 -83 148 25 36 68 52 137 52 59 0 65
2 75 25 7 14 12 27 12 29 0 2 -26 3 -58 2 -42 -1 -69 -8 -97 -26 -74 -46 -158
-26 -192 45 -9 19 -19 35 -22 35 -3 0 -19 -19 -35 -41 -79 -112 -196 -69 -196
72 0 31 9 87 21 124 11 37 19 68 17 69 -2 1 -23 1 -48 -2 l-46 -4 -53 -95
c-31 -54 -57 -91 -62 -86 -5 5 8 51 31 108 l40 99 -20 21 c-11 11 -23 35 -26
52 l-6 31 -50 -73 c-55 -83 -109 -134 -177 -167 -37 -19 -63 -23 -136 -23 -49
0 -104 4 -120 8 l-31 9 -41 -104 c-22 -56 -44 -120 -47 -140 -8 -43 -25 -49
-56 -18 -12 12 -20 33 -20 55 0 21 -5 35 -12 35 -10 0 -10 2 -1 8 18 11 36 66
24 70 -17 6 -13 26 8 44 10 8 24 40 31 69 7 30 26 83 42 118 17 35 43 100 58
143 15 44 30 81 32 83 2 2 21 -6 43 -18 65 -37 66 -57 7 -188 -57 -130 -58
-128 37 -136 75 -7 161 27 161 63 0 12 11 35 24 51 l24 27 -3 -27 c-2 -15 0
-27 5 -27 16 0 86 88 113 142 38 75 45 123 22 148 -43 47 -194 64 -308 34
-107 -27 -256 -114 -315 -182 l-23 -27 -29 33 c-45 48 -41 85 14 138 76 73
278 154 382 154 49 0 51 18 8 58 -22 20 -38 40 -36 44 1 5 -4 16 -13 24 -27
27 -16 37 14 12 16 -12 43 -31 61 -41z m227 -703 c11 -18 17 -48 17 -93 1 -60
-1 -66 -20 -69 -15 -2 -40 14 -80 52 -66 61 -66 71 -4 114 43 29 66 28 87 -4z
m-336 -76 c6 -11 8 -36 4 -57 -13 -76 -11 -122 7 -164 11 -23 17 -50 14 -59
-2 -10 1 -18 7 -18 6 0 8 -2 5 -5 -3 -3 -12 -3 -20 0 -14 5 -25 37 -57 160 -6
23 -26 59 -45 81 -36 42 -35 61 1 91 19 15 70 -2 84 -29z m774 -228 c14 -19
25 -39 25 -46 0 -23 -79 -46 -137 -38 -67 8 -74 22 -44 80 21 39 27 43 65 46
52 4 60 0 91 -42z m889 -11 c20 -49 15 -59 -50 -107 -58 -44 -123 -136 -147
-211 -25 -78 -23 -186 6 -235 31 -55 67 -79 129 -84 67 -5 128 11 168 44 l30
26 -44 28 c-32 21 -51 44 -72 87 -26 52 -29 67 -28 158 0 124 26 199 89 263
38 37 47 42 89 42 62 0 80 -11 113 -67 22 -39 28 -61 31 -132 5 -100 -13 -182
-60 -274 l-30 -60 33 7 c88 17 163 101 212 236 19 52 53 141 74 197 l39 101
37 -21 c21 -12 40 -32 43 -44 4 -15 -15 -67 -61 -165 -80 -168 -115 -264 -115
-313 0 -30 3 -35 24 -35 60 0 107 72 176 267 26 76 63 177 82 225 l34 86 37
-21 c21 -12 40 -32 43 -44 4 -15 -15 -66 -59 -160 -113 -240 -144 -353 -96
-353 32 0 76 36 105 86 14 24 29 42 34 39 4 -2 10 9 14 27 9 47 99 238 112
238 19 0 64 -48 64 -69 0 -11 -23 -65 -51 -119 -58 -111 -76 -196 -44 -208 38
-15 98 60 131 161 26 82 86 205 100 205 13 0 64 -56 64 -70 0 -5 -22 -55 -50
-111 -58 -119 -67 -179 -26 -179 31 0 73 34 106 87 16 24 31 40 34 35 11 -18
-26 -101 -60 -136 -31 -32 -41 -36 -84 -36 -27 0 -52 5 -55 10 -8 13 -25 3
-25 -15 0 -18 118 -31 170 -17 38 9 40 9 40 -13 0 -13 -14 -37 -31 -54 -26
-26 -38 -31 -78 -31 -26 0 -70 7 -97 15 l-48 14 -29 -34 c-67 -81 -207 -66
-207 23 0 58 37 84 129 92 45 3 66 9 69 20 4 12 2 13 -9 3 -7 -7 -29 -13 -49
-13 -47 0 -80 34 -87 89 l-6 41 -19 -40 c-30 -60 -71 -90 -124 -90 -52 0 -84
26 -84 66 0 26 -2 25 -43 -20 -40 -42 -47 -46 -90 -46 -74 0 -93 27 -87 129
l2 35 -27 -33 c-40 -47 -122 -91 -171 -91 -30 0 -46 -6 -63 -24 -38 -40 -122
-76 -194 -83 -58 -5 -72 -3 -120 21 -87 42 -127 118 -127 241 0 152 80 316
200 411 30 24 58 43 61 44 4 0 14 -18 23 -41z m-1505 -541 c144 -26 157 -27
229 -16 49 7 67 6 108 -10 27 -11 83 -25 124 -32 122 -20 150 -39 93 -61 -35
-14 -182 -32 -245 -30 -46 2 -48 0 -78 -46 -16 -26 -30 -62 -30 -79 l0 -31
-84 -13 c-46 -7 -95 -10 -109 -6 -14 3 -49 1 -78 -4 -29 -6 -61 -8 -71 -4 -32
10 -20 33 25 44 192 47 244 70 281 121 20 29 25 44 18 51 -6 6 -58 15 -114 18
-57 4 -120 14 -141 22 -26 10 -52 12 -85 8 -58 -9 -62 -4 -62 78 l0 62 51 -26
c31 -15 97 -34 168 -46z m1031 16 c101 -15 164 -69 185 -156 6 -23 4 -28 -12
-28 -10 0 -24 -5 -30 -11 -7 -7 -27 -8 -54 -4 -33 6 -53 18 -88 55 -25 26 -56
52 -68 59 -33 17 -99 13 -133 -8 -26 -15 -37 -16 -70 -7 -22 5 -39 15 -37 20
3 10 143 73 192 86 17 5 39 7 50 5 11 -2 40 -7 65 -11z m-331 -208 c53 -23 53
-23 25 -30 -40 -10 -53 -23 -47 -46 4 -14 -1 -20 -18 -24 -44 -10 -54 -10 -81
-3 -20 5 -25 12 -21 27 3 11 0 27 -7 35 -10 12 -9 20 4 40 21 32 71 33 145 1z
m-275 -110 c-3 -8 -16 -17 -29 -20 -17 -4 -22 -11 -18 -22 8 -20 92 -59 121
-56 22 3 118 -63 135 -93 14 -25 -32 -29 -64 -6 -16 12 -42 30 -58 42 -16 12
-47 22 -72 23 -24 2 -89 9 -144 16 l-101 13 -64 -31 c-36 -17 -87 -36 -113
-43 -39 -9 -52 -18 -64 -43 -17 -37 -72 -75 -118 -83 -27 -4 -33 -2 -38 18 -4
13 -7 29 -7 36 0 13 71 56 121 72 20 6 44 20 54 31 9 10 42 24 72 30 79 17
164 57 170 80 6 22 23 24 89 11 29 -6 46 -4 59 6 11 7 27 13 37 13 10 0 18 5
18 10 0 6 4 10 10 10 5 0 7 -6 4 -14z m9 -207 c86 2 127 -13 127 -49 0 -31
-37 -35 -71 -6 -26 22 -40 26 -97 26 -133 0 -155 -30 -26 -34 56 -2 88 -8 107
-20 58 -39 11 -72 -50 -36 -36 21 -63 23 -256 18 -55 -1 -58 1 -50 30 4 15 13
22 30 22 32 0 63 17 63 35 0 21 19 25 85 18 33 -4 95 -6 138 -4z m771 -218
c52 -21 110 -48 128 -60 18 -12 50 -29 70 -39 21 -9 38 -23 38 -29 0 -15 -16
-17 -25 -3 -3 6 -13 10 -22 10 -8 0 -28 9 -43 20 -26 19 -167 70 -191 70 -6 0
-23 8 -37 18 -24 17 -38 18 -127 11 -55 -4 -128 -11 -161 -15 -42 -4 -63 -3
-68 5 -12 18 39 31 132 32 72 1 200 12 209 18 2 0 45 -16 97 -38z"/>
<path d="M3713 1826 c-95 -115 -92 -333 6 -389 l31 -19 20 45 c55 123 65 287
24 358 -27 46 -46 47 -81 5z"/>
<path d="M2755 584 c-74 -11 -110 -44 -55 -52 17 -3 19 -6 10 -12 -9 -6 -3
-13 21 -25 19 -10 45 -26 58 -36 17 -14 39 -19 80 -18 42 1 50 3 31 8 -37 12
-90 40 -90 49 0 5 -12 13 -27 19 -27 10 -26 11 16 12 33 1 53 -5 78 -25 52
-39 102 -57 145 -50 41 7 88 26 88 36 0 3 -35 14 -77 24 -43 10 -99 29 -125
42 -49 25 -104 35 -153 28z"/>
</g>
</svg>
